<?xml version="1.0" encoding="utf-8"?>
<!-- Generator: Adobe Illustrator 26.1.0, SVG Export Plug-In . SVG Version: 6.00 Build 0)  -->
<svg version="1.1" id="Ebene_1" xmlns="http://www.w3.org/2000/svg" xmlns:xlink="http://www.w3.org/1999/xlink" x="0px" y="0px"
	 viewBox="0 0 2041 640" style="enable-background:new 0 0 2041 640;" xml:space="preserve">
<style type="text/css">
	.st0{fill:#EE7D05;}
	.st1{fill:#202945;}
	.st2{fill:none;}
</style>
<g>
	<path class="st0" d="M489.16,216.42c35.36,0,64.13,28.76,64.13,64.13s-28.76,64.13-64.13,64.13s-64.13-28.76-64.13-64.13
		S453.79,216.42,489.16,216.42 M489.16,199.31c-44.79,0-81.23,36.44-81.23,81.24s36.44,81.24,81.23,81.24s81.24-36.44,81.24-81.24
		S533.95,199.31,489.16,199.31"/>
	<path class="st1" d="M755.28,199.35c-4.72,0-8.55,3.84-8.55,8.55v145.28c0,4.72,3.84,8.55,8.55,8.55s8.55-3.84,8.55-8.55V207.89
		C763.83,203.18,760,199.35,755.28,199.35"/>
	<path class="st0" d="M906.35,216.44c35.36,0,64.13,28.76,64.13,64.13s-28.76,64.13-64.13,64.13c-35.36,0-64.13-28.76-64.13-64.13
		S870.99,216.44,906.35,216.44 M906.35,199.33c-44.79,0-81.24,36.44-81.24,81.24s36.44,81.24,81.24,81.24
		c44.79,0,81.24-36.44,81.24-81.24S951.14,199.33,906.35,199.33"/>
	<path class="st1" d="M302.55,199.31c-18.22,0-34.28,9.4-43.62,23.6c-9.33-14.2-25.39-23.61-43.61-23.61
		c-28.76,0-52.16,23.41-52.16,52.17v101.77c0,4.71,3.84,8.55,8.55,8.55c4.72,0,8.56-3.84,8.56-8.55V251.48
		c0-19.34,15.72-35.06,35.05-35.06c19.33,0,35.05,15.73,35.05,35.06v0.01v101.76v0.01c0,4.71,3.84,8.55,8.55,8.55
		c4.72,0,8.55-3.84,8.55-8.55v-0.01V251.48c0-19.34,15.73-35.06,35.06-35.06c19.33,0,35.04,15.73,35.04,35.06v101.77
		c0,4.71,3.84,8.55,8.55,8.55c4.72,0,8.55-3.84,8.55-8.55V251.48C354.7,222.72,331.3,199.31,302.55,199.31"/>
	<path class="st1" d="M675.95,344.7c-19.34,0-35.06-15.73-35.06-35.04v-93.2h13.26c4.71,0,8.55-3.84,8.55-8.55
		c0-4.71-3.84-8.55-8.55-8.55h-13.26v-27.8c0-4.72-3.84-8.55-8.55-8.55c-4.71,0-8.55,3.84-8.55,8.55v138.11
		c0,28.75,23.4,52.15,52.16,52.15c4.71,0,8.55-3.84,8.55-8.55C684.51,348.55,680.66,344.7,675.95,344.7"/>
	<path class="st1" d="M1095.85,199.31c-28.75,0-52.16,23.41-52.16,52.17v101.77c0,4.71,3.84,8.55,8.56,8.55
		c4.71,0,8.55-3.84,8.55-8.55V251.48c0-19.34,15.73-35.06,35.05-35.06c19.34,0,35.06,15.73,35.06,35.06v101.77
		c0,4.71,3.84,8.55,8.55,8.55c4.71,0,8.55-3.84,8.55-8.55V251.48C1148.01,222.72,1124.61,199.31,1095.85,199.31"/>
	<path class="st1" d="M1398.59,199.32c-4.72,0-8.55,3.84-8.55,8.55v101.78c0,19.33-15.72,35.05-35.04,35.05
		c-19.3,0-35-15.67-35.06-34.95c0-0.03,0.01-0.08,0.01-0.11V207.87c0-4.72-3.84-8.55-8.56-8.55c-3.53,0-6.58,2.16-7.87,5.24
		c-0.44,1.02-0.68,2.14-0.68,3.33v101.78c0,0.03,0.01,0.07,0.01,0.1c-0.06,19.28-15.77,34.93-35.06,34.93
		c-19.33,0-35.05-15.72-35.05-35.04V207.87c0-4.72-3.84-8.55-8.55-8.55c-4.71,0-8.55,3.84-8.55,8.55v101.78
		c0,28.75,23.4,52.15,52.15,52.15c18.21,0,34.28-9.39,43.61-23.58c9.33,14.2,25.39,23.59,43.62,23.59
		c28.75,0,52.15-23.39,52.15-52.15V207.87C1407.15,203.17,1403.31,199.32,1398.59,199.32"/>
	<path class="st1" d="M1725.66,199.32h-21.8c-28.75,0-52.15,23.41-52.15,52.17v101.77c0,4.71,3.84,8.55,8.55,8.55
		c4.72,0,8.55-3.84,8.55-8.55V251.49c0-19.34,15.73-35.06,35.06-35.06h21.8c4.72,0,8.55-3.84,8.55-8.55
		C1734.21,203.17,1730.38,199.32,1725.66,199.32"/>
	<path class="st1" d="M1527.69,344.71c-19.34,0-35.06-15.72-35.06-35.05v-58.17c0-19.34,15.73-35.06,35.06-35.06
		c19.34,0,35.06,15.73,35.06,35.06v58.17C1562.75,328.99,1547.03,344.71,1527.69,344.71 M1527.69,199.32
		c-28.76,0-52.15,23.41-52.15,52.17v58.17c0,28.76,23.39,52.15,52.15,52.15c13.11,0,25.51-4.86,35.06-13.57v5.02
		c0,4.71,3.84,8.55,8.55,8.55c4.71,0,8.54-3.84,8.54-8.55V251.49C1579.84,222.73,1556.45,199.32,1527.69,199.32"/>
	<path class="st1" d="M1825.44,216.43c19.34,0,35.07,15.73,35.07,35.06v20.47h-70.13v-20.47
		C1790.38,232.15,1806.12,216.43,1825.44,216.43 M1869.05,289.07c4.72,0,8.55-3.84,8.55-8.55v-29.02
		c0-28.76-23.39-52.17-52.15-52.17c-28.75,0-52.14,23.41-52.14,52.17v58.17c0,28.75,23.39,52.15,52.14,52.15h43.61
		c4.72,0,8.55-3.84,8.55-8.55c0-4.72-3.83-8.55-8.55-8.55h-43.61c-19.33,0-35.06-15.73-35.06-35.05v-20.59H1869.05z"/>
	<path class="st1" d="M1859.21,446.38c5.59,0,9.61,3.61,10.29,8.86h-20.64C1849.68,449.92,1853.7,446.38,1859.21,446.38
		 M1877.6,458.38c0-11.38-7.76-18.79-18.39-18.79c-10.83,0-18.8,7.76-18.8,18.59c0,10.83,7.91,18.65,20.1,18.65
		c6.27,0,11.38-2.04,14.65-5.92l-4.56-5.24c-2.59,2.66-5.79,3.96-9.88,3.96c-6.33,0-10.77-3.41-11.79-8.74h28.53
		C1877.53,460.08,1877.6,459.06,1877.6,458.38 M1830.94,439.99l-11.65,26.97l-11.31-26.97h-8.86l15.6,36.37h8.78l15.6-36.37H1830.94
		z M1785.37,476.36h8.51v-36.37h-8.51V476.36z M1789.66,433.98c3.2,0,5.44-2.32,5.44-5.31c0-2.79-2.32-4.91-5.44-4.91
		c-3.13,0-5.44,2.25-5.44,5.11S1786.53,433.98,1789.66,433.98 M1775.96,468.33c-1.3,1.02-3,1.49-4.77,1.49
		c-3.27,0-5.05-1.91-5.05-5.45v-17.31h9.75v-6.81h-9.75v-8.3h-8.5v8.3h-6v6.81h6v17.51c0,8.04,4.56,12.25,12.53,12.25
		c3.06,0,6.13-0.81,8.17-2.45L1775.96,468.33z M1728.89,469.56c-6.13,0-10.77-4.43-10.77-11.38c0-6.96,4.63-11.39,10.77-11.39
		c6.2,0,10.83,4.43,10.83,11.39C1739.73,465.12,1735.1,469.56,1728.89,469.56 M1728.89,476.83c11.31,0,19.41-7.75,19.41-18.65
		c0-10.9-8.1-18.59-19.41-18.59c-11.17,0-19.35,7.69-19.35,18.59C1709.55,469.08,1717.72,476.83,1728.89,476.83 M1686.39,439.58
		c-5.8,0-10.71,2.31-13.63,6.05c-2.51-4.08-6.94-6.05-12.26-6.05c-4.97,0-9.19,1.76-11.92,5.03v-4.62h-8.1v36.37h8.5V457.9
		c0-7.22,3.82-10.9,9.48-10.9c5.18,0,8.17,3.14,8.17,9.61v19.75h8.51V457.9c0-7.22,3.89-10.9,9.47-10.9c5.18,0,8.18,3.14,8.18,9.61
		v19.75h8.51v-20.84C1701.3,444.54,1695.18,439.58,1686.39,439.58 M1612.88,469.56c-6.13,0-10.77-4.43-10.77-11.38
		c0-6.96,4.63-11.39,10.77-11.39c6.2,0,10.83,4.43,10.83,11.39C1623.72,465.12,1619.08,469.56,1612.88,469.56 M1612.88,476.83
		c11.31,0,19.41-7.75,19.41-18.65c0-10.9-8.1-18.59-19.41-18.59c-11.17,0-19.35,7.69-19.35,18.59
		C1593.53,469.08,1601.71,476.83,1612.88,476.83 M1588.35,468.33c-1.3,1.02-3,1.49-4.77,1.49c-3.27,0-5.04-1.91-5.04-5.45v-17.31
		h9.74v-6.81h-9.74v-8.3h-8.51v8.3h-6v6.81h6v17.51c0,8.04,4.56,12.25,12.53,12.25c3.07,0,6.13-0.81,8.17-2.45L1588.35,468.33z
		 M1549.19,439.99v18.4c0,7.28-4.03,10.96-9.95,10.96c-5.38,0-8.52-3.14-8.52-9.74v-19.62h-8.51v20.78
		c0,10.96,6.33,16.06,15.66,16.06c4.7,0,8.99-1.76,11.72-5.1v4.62h8.1v-36.37H1549.19z M1483.03,458.38l8.93-20.86l8.99,20.86
		H1483.03z M1508.65,476.36h9.26l-21.52-47.68h-8.72l-21.46,47.68h9.13l4.7-11.03h23.84L1508.65,476.36z M1439.84,439.99
		l-11.51,26.91l-11.44-26.91h-8.86l15.87,36.51l-0.61,1.43c-1.63,3.6-3.4,5.04-6.4,5.04c-2.32,0-4.63-0.95-6.26-2.52l-3.4,6.26
		c2.32,2.11,6.13,3.34,9.74,3.34c6.06,0,10.69-2.51,14.03-10.76l17.02-39.3H1439.84z M1405.24,468.33c-1.3,1.02-3,1.49-4.77,1.49
		c-3.27,0-5.04-1.91-5.04-5.45v-17.31h9.74v-6.81h-9.74v-8.3h-8.51v8.3h-6v6.81h6v17.51c0,8.04,4.56,12.25,12.53,12.25
		c3.07,0,6.13-0.81,8.17-2.45L1405.24,468.33z M1366.07,476.36h8.51v-36.37h-8.51V476.36z M1370.37,433.98
		c3.2,0,5.44-2.32,5.44-5.31c0-2.79-2.32-4.91-5.44-4.91c-3.14,0-5.45,2.25-5.45,5.11S1367.23,433.98,1370.37,433.98 M1345.91,445.3
		v-5.31h-8.1v36.37h8.51v-17.63c0-7.43,4.09-11.25,10.56-11.25c0.61,0,1.23,0.07,1.98,0.21v-8.1
		C1352.78,439.58,1348.35,441.48,1345.91,445.3 M1318.12,439.99v18.4c0,7.28-4.03,10.96-9.95,10.96c-5.38,0-8.52-3.14-8.52-9.74
		v-19.62h-8.51v20.78c0,10.96,6.33,16.06,15.66,16.06c4.71,0,9-1.76,11.72-5.1v4.62h8.1v-36.37H1318.12z M1268.51,476.83
		c7.09,0,12.74-3.06,15.54-8.5l-6.54-3.82c-2.19,3.47-5.45,5.05-9.06,5.05c-6.26,0-11.03-4.29-11.03-11.38
		c0-7.02,4.77-11.39,11.03-11.39c3.61,0,6.88,1.57,9.06,5.05l6.54-3.82c-2.8-5.51-8.45-8.43-15.54-8.43
		c-11.52,0-19.68,7.69-19.68,18.59C1248.83,469.08,1257,476.83,1268.51,476.83 M1225.26,446.38c5.59,0,9.61,3.61,10.29,8.86h-20.64
		C1215.72,449.92,1219.75,446.38,1225.26,446.38 M1243.65,458.38c0-11.38-7.76-18.79-18.39-18.79c-10.83,0-18.8,7.76-18.8,18.59
		c0,10.83,7.91,18.65,20.1,18.65c6.26,0,11.37-2.04,14.65-5.92l-4.56-5.24c-2.59,2.66-5.79,3.96-9.88,3.96
		c-6.34,0-10.77-3.41-11.79-8.74h28.53C1243.58,460.08,1243.65,459.06,1243.65,458.38 M1182.21,477.04
		c13.08,0,19.28-6.53,19.28-14.17c0-17.49-28.27-10.89-28.27-21.04c0-3.61,3-6.48,10.36-6.48c4.16,0,8.86,1.23,13.14,3.75l2.79-6.88
		c-4.15-2.73-10.14-4.23-15.87-4.23c-13.08,0-19.21,6.53-19.21,14.25c0,17.69,28.34,10.96,28.34,21.24c0,3.55-3.13,6.21-10.56,6.21
		c-5.87,0-11.92-2.19-15.73-5.25l-3.07,6.89C1167.35,474.72,1174.78,477.04,1182.21,477.04 M1139.57,460.96h18.72v-7.08h-18.72
		V460.96z M1113.27,476.36h8.85v-40.19h15.8v-7.48h-40.45v7.48h15.8V476.36z M1081.87,476.36h8.85v-47.68h-8.85V476.36z
		 M1031.86,469.56c-6.13,0-10.83-4.43-10.83-11.38c0-6.96,4.7-11.39,10.83-11.39c6.13,0,10.83,4.43,10.83,11.39
		C1042.69,465.12,1037.99,469.56,1031.86,469.56 M1042.56,425.82v18.66c-2.86-3.34-7.02-4.9-11.72-4.9
		c-10.57,0-18.4,7.28-18.4,18.59c0,11.31,7.83,18.65,18.4,18.65c4.98,0,9.2-1.69,12.06-5.17v4.69h8.17v-50.54H1042.56z
		 M989.08,439.58c-5.31,0-9.75,1.76-12.55,5.1v-4.69h-8.1v36.37h8.51v-18.39c0-7.29,4.09-10.97,10.15-10.97
		c5.45,0,8.66,3.14,8.66,9.61v19.75h8.5v-20.84C1004.26,444.54,997.8,439.58,989.08,439.58 M939.82,470.64
		c-4.36,0-6.95-1.98-6.95-5.05c0-2.66,1.56-4.84,7.36-4.84h8.79v4.23C947.59,468.73,943.98,470.64,939.82,470.64 M940.98,439.58
		c-5.86,0-11.51,1.49-15.39,4.48l3.34,6.2c2.72-2.26,6.95-3.61,11.03-3.61c6.07,0,9.06,2.93,9.06,7.91v0.54h-9.4
		c-11.04,0-15.12,4.76-15.12,10.83c0,6.34,5.24,10.9,13.55,10.9c5.45,0,9.41-1.76,11.45-4.89v4.42h8.04v-21.32
		C957.54,444.54,951.48,439.58,940.98,439.58 M884.44,476.83c10.22,0,16.49-4.42,16.49-11.24c0-14.23-22.48-7.7-22.48-15.05
		c0-2.38,2.45-4.09,7.64-4.09c3.47,0,6.95,0.68,10.42,2.72l3.27-6.46c-3.27-1.98-8.78-3.13-13.63-3.13c-9.81,0-16,4.48-16,11.36
		c0,14.52,22.48,7.97,22.48,14.92c0,2.52-2.25,4.03-7.64,4.03c-4.56,0-9.47-1.5-12.67-3.62l-3.27,6.48
		C872.32,475.07,878.37,476.83,884.44,476.83 M850.31,476.83c7.08,0,12.74-3.06,15.53-8.5l-6.54-3.82
		c-2.18,3.47-5.44,5.05-9.05,5.05c-6.27,0-11.03-4.29-11.03-11.38c0-7.02,4.76-11.39,11.03-11.39c3.61,0,6.88,1.57,9.05,5.05
		l6.54-3.82c-2.79-5.51-8.44-8.43-15.53-8.43c-11.52,0-19.68,7.69-19.68,18.59C830.63,469.08,838.79,476.83,850.31,476.83
		 M813.94,476.36h8.51v-36.37h-8.51V476.36z M818.23,433.98c3.2,0,5.44-2.32,5.44-5.31c0-2.79-2.32-4.91-5.44-4.91
		c-3.14,0-5.45,2.25-5.45,5.11S815.09,433.98,818.23,433.98 M804.53,468.33c-1.29,1.02-2.99,1.49-4.76,1.49
		c-3.27,0-5.05-1.91-5.05-5.45v-17.31h9.75v-6.81h-9.75v-8.3h-8.5v8.3h-6v6.81h6v17.51c0,8.04,4.55,12.25,12.52,12.25
		c3.07,0,6.13-0.81,8.17-2.45L804.53,468.33z M761.2,476.83c10.22,0,16.49-4.42,16.49-11.24c0-14.23-22.48-7.7-22.48-15.05
		c0-2.38,2.45-4.09,7.64-4.09c3.47,0,6.95,0.68,10.42,2.72l3.27-6.46c-3.27-1.98-8.78-3.13-13.62-3.13
		c-9.82,0-16.01,4.48-16.01,11.36c0,14.52,22.48,7.97,22.48,14.92c0,2.52-2.25,4.03-7.64,4.03c-4.56,0-9.47-1.5-12.67-3.62
		l-3.27,6.48C749.08,475.07,755.14,476.83,761.2,476.83 M730.29,476.36h8.51v-36.37h-8.51V476.36z M734.57,433.98
		c3.2,0,5.44-2.32,5.44-5.31c0-2.79-2.32-4.91-5.44-4.91c-3.14,0-5.45,2.25-5.45,5.11S731.44,433.98,734.57,433.98 M699.69,467.51
		c-6.47,0-11.11-4.23-11.11-10.42c0-6.13,4.64-10.3,11.11-10.3c6.4,0,11.04,4.16,11.04,10.29
		C710.74,463.28,706.1,467.51,699.69,467.51 M711,439.99v4.83c-3-3.6-7.49-5.24-12.61-5.24c-10.43,0-18.39,6.94-18.39,17.5
		c0,10.57,7.96,17.64,18.39,17.64c4.91,0,9.2-1.56,12.2-4.83v1.9c0,7.36-3.54,11.04-11.59,11.04c-5.05,0-10.22-1.7-13.42-4.36
		l-3.81,6.4c4.15,3.4,10.9,5.18,17.7,5.18c12.74,0,19.62-5.99,19.62-19.21v-30.85H711z M655.41,469.56
		c-6.13,0-10.77-4.43-10.77-11.38c0-6.96,4.63-11.39,10.77-11.39c6.2,0,10.83,4.43,10.83,11.39
		C666.25,465.12,661.62,469.56,655.41,469.56 M655.41,476.83c11.31,0,19.41-7.75,19.41-18.65c0-10.9-8.1-18.59-19.41-18.59
		c-11.17,0-19.35,7.69-19.35,18.59C636.07,469.08,644.24,476.83,655.41,476.83 M599.42,476.36h33.77v-7.48h-24.93v-40.19h-8.85
		V476.36z M553.78,439.58c-5.32,0-9.75,1.76-12.55,5.1v-4.69h-8.1v36.37h8.51v-18.39c0-7.29,4.09-10.97,10.15-10.97
		c5.45,0,8.66,3.14,8.66,9.61v19.75h8.5v-20.84C568.96,444.54,562.5,439.58,553.78,439.58 M505.54,469.56
		c-6.13,0-10.77-4.43-10.77-11.38c0-6.96,4.64-11.39,10.77-11.39c6.2,0,10.84,4.43,10.84,11.39
		C516.38,465.12,511.74,469.56,505.54,469.56 M505.54,476.83c11.32,0,19.41-7.75,19.41-18.65c0-10.9-8.1-18.59-19.41-18.59
		c-11.17,0-19.34,7.69-19.34,18.59C486.2,469.08,494.37,476.83,505.54,476.83 M469.51,476.36h8.51v-36.37h-8.51V476.36z
		 M473.79,433.98c3.21,0,5.45-2.32,5.45-5.31c0-2.79-2.32-4.91-5.45-4.91c-3.13,0-5.44,2.25-5.44,5.11S470.67,433.98,473.79,433.98
		 M460.1,468.33c-1.3,1.02-3,1.49-4.77,1.49c-3.27,0-5.04-1.91-5.04-5.45v-17.31h9.74v-6.81h-9.74v-8.3h-8.51v8.3h-6v6.81h6v17.51
		c0,8.04,4.56,12.25,12.53,12.25c3.07,0,6.13-0.81,8.17-2.45L460.1,468.33z M412.01,470.64c-4.36,0-6.95-1.98-6.95-5.05
		c0-2.66,1.56-4.84,7.36-4.84h8.79v4.23C419.78,468.73,416.16,470.64,412.01,470.64 M413.17,439.58c-5.86,0-11.51,1.49-15.39,4.48
		l3.34,6.2c2.72-2.26,6.95-3.61,11.03-3.61c6.07,0,9.06,2.93,9.06,7.91v0.54h-9.4c-11.04,0-15.12,4.76-15.12,10.83
		c0,6.34,5.24,10.9,13.55,10.9c5.45,0,9.41-1.76,11.45-4.89v4.42h8.04v-21.32C429.72,444.54,423.66,439.58,413.17,439.58
		 M373.46,439.58c-5.8,0-10.71,2.31-13.63,6.05c-2.52-4.08-6.95-6.05-12.26-6.05c-4.98,0-9.2,1.76-11.93,5.03v-4.62h-8.1v36.37h8.51
		V457.9c0-7.22,3.81-10.9,9.47-10.9c5.18,0,8.18,3.14,8.18,9.61v19.75h8.5V457.9c0-7.22,3.89-10.9,9.48-10.9
		c5.18,0,8.17,3.14,8.17,9.61v19.75h8.51v-20.84C388.37,444.54,382.24,439.58,373.46,439.58 M307.37,445.3v-5.31h-8.1v36.37h8.5
		v-17.63c0-7.43,4.1-11.25,10.57-11.25c0.61,0,1.23,0.07,1.97,0.21v-8.1C314.25,439.58,309.82,441.48,307.37,445.3 M271.67,469.56
		c-6.13,0-10.77-4.43-10.77-11.38c0-6.96,4.63-11.39,10.77-11.39c6.2,0,10.83,4.43,10.83,11.39
		C282.51,465.12,277.88,469.56,271.67,469.56 M271.67,476.83c11.32,0,19.41-7.75,19.41-18.65c0-10.9-8.1-18.59-19.41-18.59
		c-11.17,0-19.34,7.69-19.34,18.59C252.34,469.08,260.5,476.83,271.67,476.83 M245.51,432.21c1.77,0,3.4,0.61,4.7,1.5l2.38-6.4
		c-1.91-1.36-4.77-1.97-7.7-1.97c-8.44,0-13,4.97-13,12.6v2.32h-6v6.81h6v29.29h8.51v-29.29h9.74v-6.81h-10.01v-2.18
		C240.13,434.19,241.97,432.21,245.51,432.21 M204.71,439.58c-5.31,0-9.75,1.76-12.54,5.1v-4.69h-8.1v36.37h8.51v-18.39
		c0-7.29,4.09-10.97,10.15-10.97c5.45,0,8.66,3.14,8.66,9.61v19.75h8.51v-20.84C219.9,444.54,213.43,439.58,204.71,439.58
		 M163.16,476.36h8.85v-47.68h-8.85V476.36z"/>
</g>
<g>
	<rect x="0" y="0" class="st2" width="2041" height="640"/>
</g>
</svg>
